<mxfile host="app.diagrams.net" modified="2023-04-02T13:08:04.166Z" agent="Mozilla/5.0 (Windows NT 10.0; Win64; x64) AppleWebKit/537.36 (KHTML, like Gecko) Chrome/111.0.0.0 Safari/537.36" version="21.1.2" etag="mfJyt98fVCX2RdLbaqq1" type="github">
  <diagram name="Trang-1" id="TJUeHbGixi3VzlTLXDEl">
    <mxGraphModel>
      <root>
        <mxCell id="0" />
        <mxCell id="1" parent="0" />
      </root>
    </mxGraphModel>
  </diagram>
</mxfile>
